<svg xmlns="http://www.w3.org/2000/svg" width="932" height="288" viewBox="0 0 932.3 288.0"><title>SUNLINE</title><g transform="matrix(0.20000,0,0,-0.20000,24.00,210.00)" fill="#F4F1E8"><path transform="translate(0,0)" d="M299 -14Q229 -14 176.5 2.0Q124 18 89.0 48.0Q54 78 37.5 120.5Q21 163 23 215L173 248Q175 202 192.5 173.5Q210 145 240.0 131.5Q270 118 307 118Q337 118 360.0 125.5Q383 133 396.5 146.5Q410 160 410 178Q410 202 392.0 217.5Q374 233 342.5 244.0Q311 255 271 266Q228 278 185.5 292.5Q143 307 108.0 329.0Q73 351 51.5 386.0Q30 421 30 473Q30 537 62.5 582.0Q95 627 152.5 650.5Q210 674 284 674Q362 674 423.0 647.5Q484 621 517.0 570.0Q550 519 543 445L395 421Q396 451 389.0 474.0Q382 497 367.5 513.0Q353 529 331.0 537.5Q309 546 279 546Q248 546 227.5 538.0Q207 530 196.5 516.0Q186 502 186 484Q186 463 202.0 449.0Q218 435 248.0 424.5Q278 414 319 403Q362 391 405.5 376.5Q449 362 486.0 338.5Q523 315 545.5 278.0Q568 241 568 184Q568 118 533.5 74.0Q499 30 438.5 8.0Q378 -14 299 -14Z"/><path transform="translate(589,0)" d="M313 -14Q256 -14 211.0 -1.0Q166 12 133.5 36.0Q101 60 79.5 93.5Q58 127 47.5 169.0Q37 211 37 260V660H199V268Q199 217 214.0 186.5Q229 156 254.5 143.0Q280 130 313 130Q347 130 372.5 143.0Q398 156 413.0 186.0Q428 216 428 268V660H590V260Q590 130 520.0 58.0Q450 -14 313 -14Z"/><path transform="translate(1220,0)" d="M40 0V660H257L492 213H494V660H654V0H450L202 462H200V0Z"/><path transform="translate(1918,0)" d="M40 0V660H202V0ZM68 0V138H453V0Z"/><path transform="translate(2382,0)" d="M40 0V660H203V0Z"/><path transform="translate(2629,0)" d="M40 0V660H257L492 213H494V660H654V0H450L202 462H200V0Z"/><path transform="translate(3327,0)" d="M40 0V660H202V0ZM161 0V135H512V0ZM161 272V393H466V272ZM161 525V660H512V525Z"/></g><rect x="842.28" y="144.00" width="66.00" height="66.00" rx="10.56" fill="#F4F1E8"/></svg>